<?xml version="1.0" standalone="no"?>
<!DOCTYPE svg PUBLIC "-//W3C//DTD SVG 20010904//EN"
 "http://www.w3.org/TR/2001/REC-SVG-20010904/DTD/svg10.dtd">
<svg version="1.0" xmlns="http://www.w3.org/2000/svg"
 width="512.000000pt" height="512.000000pt" viewBox="0 0 512.000000 512.000000"
 preserveAspectRatio="xMidYMid meet">

<g transform="translate(0.000000,512.000000) scale(0.100000,-0.100000)"
fill="#000000" stroke="none">
<path d="M2109 5097 c-103 -55 -119 -194 -31 -269 l32 -26 -318 -5 c-357 -4
-381 -8 -537 -82 -158 -74 -271 -176 -364 -326 -60 -98 -106 -232 -97 -282 9
-47 44 -97 86 -121 35 -21 39 -21 1680 -21 1641 0 1645 0 1680 21 42 24 77 74
86 121 9 50 -37 184 -97 282 -93 150 -206 252 -364 326 -156 74 -180 78 -537
82 l-318 5 32 26 c87 74 71 216 -31 269 -44 23 -46 23 -451 23 -407 0 -407 0
-451 -23z"/>
<path d="M921 3620 c-49 -12 -83 -40 -109 -92 l-23 -46 140 -1653 c78 -910
144 -1671 147 -1692 7 -46 55 -104 101 -123 48 -21 2718 -21 2766 0 46 19 94
77 101 123 3 21 69 782 147 1692 l140 1653 -23 46 c-27 54 -59 80 -114 92 -48
12 -3225 11 -3273 0z m722 -559 c72 -45 65 4 177 -1216 56 -610 100 -1129 97
-1152 -17 -160 -238 -195 -313 -51 -15 29 -214 2143 -214 2272 0 78 25 121 90
154 54 28 111 25 163 -7z m980 15 c49 -20 95 -78 102 -128 3 -24 5 -547 3
-1163 l-3 -1120 -23 -37 c-26 -42 -92 -78 -142 -78 -50 0 -116 36 -142 78
l-23 37 -3 1120 c-2 616 0 1139 3 1163 15 103 132 169 228 128z m1017 -8 c65
-33 90 -76 90 -154 0 -129 -199 -2243 -214 -2272 -75 -144 -296 -109 -313 51
-3 23 41 542 97 1152 114 1247 103 1176 189 1222 55 29 95 29 151 1z"/>
</g>
</svg>
