<?xml version="1.0" standalone="no"?>
<!DOCTYPE svg PUBLIC "-//W3C//DTD SVG 20010904//EN"
 "http://www.w3.org/TR/2001/REC-SVG-20010904/DTD/svg10.dtd">
<svg version="1.0" xmlns="http://www.w3.org/2000/svg"
 width="512.000000pt" height="512.000000pt" viewBox="0 0 512.000000 512.000000"
 preserveAspectRatio="xMidYMid meet">

<g transform="translate(0.000000,512.000000) scale(0.100000,-0.100000)"
fill="#000000" stroke="none">
<path d="M4330 5105 c-85 -19 -214 -83 -275 -137 -50 -44 -161 -165 -1159
-1258 -314 -344 -665 -728 -781 -855 -116 -126 -256 -280 -312 -341 -56 -62
-110 -129 -121 -150 -11 -22 -81 -224 -156 -450 -123 -371 -136 -417 -136
-481 0 -58 5 -80 31 -131 61 -123 197 -190 325 -162 48 11 628 258 809 345 86
42 96 50 210 177 66 73 172 189 235 258 440 481 1747 1913 1893 2074 125 139
178 232 203 361 41 212 -22 412 -181 571 -88 89 -143 123 -255 161 -94 32
-235 39 -330 18z m195 -436 c23 -7 57 -28 81 -53 66 -66 80 -151 37 -231 -10
-19 -291 -332 -624 -697 -333 -365 -731 -800 -884 -968 -153 -168 -317 -347
-363 -398 -47 -51 -91 -92 -97 -90 -7 2 -76 61 -154 133 l-141 129 38 41 c22
22 90 96 152 164 62 69 370 406 684 750 314 344 688 753 830 909 304 333 320
344 441 311z m-2153 -2781 c-14 -14 -443 -200 -449 -194 -5 5 131 424 149 459
8 15 30 -1 159 -119 89 -81 147 -140 141 -146z"/>
<path d="M900 4638 c-420 -43 -776 -367 -867 -788 -17 -80 -18 -168 -18 -1540
l0 -1455 28 -100 c108 -392 411 -671 806 -740 130 -23 2865 -22 2995 1 436 76
767 419 825 857 7 50 11 426 11 1051 0 1082 3 1026 -67 1098 -85 87 -221 88
-307 2 -65 -66 -60 14 -66 -1109 l-5 -1020 -22 -66 c-57 -166 -194 -303 -361
-361 l-67 -23 -1440 0 -1440 0 -67 23 c-167 58 -304 195 -361 361 l-22 66 -3
1397 c-2 1182 0 1408 12 1466 41 197 186 357 386 425 65 22 65 22 1115 27
1157 6 1074 1 1137 67 58 61 74 161 39 239 -26 57 -92 110 -153 123 -61 13
-1962 13 -2088 -1z"/>
</g>
</svg>
